<?xml version="1.0" standalone="no"?>
<!DOCTYPE svg PUBLIC "-//W3C//DTD SVG 20010904//EN"
 "http://www.w3.org/TR/2001/REC-SVG-20010904/DTD/svg10.dtd">
<svg version="1.0" xmlns="http://www.w3.org/2000/svg"
 width="16.000000pt" height="16.000000pt" viewBox="0 0 16.000000 16.000000"
 preserveAspectRatio="xMidYMid meet">
<metadata>
Created by potrace 1.11, written by Peter Selinger 2001-2013
</metadata>
<g transform="translate(0.000000,16.000000) scale(0.004000,-0.004000)"
fill="#000000" stroke="none">
<path d="M1938 3445 c-2 -2 -46 -6 -98 -9 -152 -10 -214 -17 -222 -25 -5 -4 8
-33 28 -64 60 -97 93 -220 89 -330 l-2 -44 36 6 c48 8 339 6 426 -3 245 -26
517 -125 741 -271 l82 -53 5 36 c12 70 94 217 159 281 33 34 65 61 70 61 26 0
-156 115 -287 182 -150 76 -377 156 -520 184 -22 4 -44 8 -50 9 -101 22 -444
52 -457 40z"/>
<path d="M1105 3410 c-169 -18 -326 -170 -344 -332 -1 -3 -49 -44 -108 -89
-167 -128 -390 -359 -458 -476 l-18 -32 55 -73 c88 -116 107 -137 213 -243
244 -245 549 -430 874 -530 98 -31 102 -33 70 -40 -84 -18 -285 -92 -409 -152
-301 -145 -567 -354 -776 -608 -60 -74 -194 -271 -194 -286 0 -5 120 -9 280
-9 l281 0 102 103 c163 163 325 282 517 378 129 64 359 140 464 154 27 3 52 8
56 10 12 7 170 17 274 17 336 -1 650 -93 946 -276 36 -22 70 -44 75 -48 122
-92 188 -149 273 -235 l103 -103 285 2 284 3 -66 100 c-298 452 -785 811
-1277 940 l-68 18 83 24 c291 84 630 279 846 487 42 40 44 41 120 42 97 2 124
8 192 42 74 37 140 105 180 186 62 125 49 264 -35 391 -67 101 -157 152 -284
162 -236 18 -415 -140 -426 -375 -3 -73 -3 -74 -47 -110 -23 -20 -49 -43 -57
-50 -38 -36 -180 -138 -258 -185 -76 -46 -111 -63 -218 -108 -101 -42 -296
-94 -430 -114 -69 -11 -317 -13 -394 -4 -216 24 -477 102 -631 188 -25 13 -54
29 -65 35 -64 35 -215 148 -320 241 -38 34 -35 38 94 143 l102 83 44 -17 c69
-26 188 -15 269 25 76 37 147 110 184 189 52 109 36 264 -35 362 -60 82 -162
152 -242 165 -19 3 -37 7 -40 8 -3 2 -33 0 -66 -3z"/>
<path d="M1919 2826 c-193 -51 -329 -262 -288 -446 30 -135 151 -266 275 -299
40 -11 145 -15 174 -8 55 14 78 23 117 45 163 91 233 279 173 463 -59 178
-269 293 -451 245z"/>
</g>
</svg>
